<?xml version="1.0" encoding="UTF-8"?>
<svg id="Layer_1" xmlns="http://www.w3.org/2000/svg" version="1.1" viewBox="0 0 48 48">
  <!-- Generator: Adobe Illustrator 29.3.1, SVG Export Plug-In . SVG Version: 2.1.0 Build 151)  -->
  <defs>
    <style>
      .st0 {
        fill: #1e773b;
      }
    </style>
  </defs>
  <path class="st0" d="M38.1,25.5l-27.9-7.3c-1.4-.4-2.5-1.6-2.5-3.2v-.9c0-1.2.5-2.2,1.4-2.8L23.2,1.8c.8-.6,1.9-.6,2.7,0l14.1,9.4c.9.6,1.4,1.7,1.4,2.8v8.2c0,2.1-1.6,3.6-3.3,3.2Z"/>
  <path class="st0" d="M37.9,29.9l-27.9-7.3c-1.7-.4-3.3,1.1-3.3,3.2v8.2c0,1.2.5,2.2,1.4,2.8l14.1,9.4c.8.6,1.9.6,2.7,0l14.1-9.4c.9-.6,1.4-1.7,1.4-2.8v-.9c0-1.7-1.1-2.9-2.5-3.2h0ZM15.1,34.6c-1.5,0-2.8-1.3-2.8-2.8s1.3-2.8,2.8-2.8,2.8,1.3,2.8,2.8-1.3,2.8-2.8,2.8h0Z"/>
</svg>