<?xml version="1.0" encoding="UTF-8"?>
<svg id="Layer_1" data-name="Layer 1" xmlns="http://www.w3.org/2000/svg" viewBox="0 0 792.38 1033.71">
  <defs>
    <style>
      .cls-1 {
        fill: #1e773b;
      }
    </style>
  </defs>
  <path class="cls-1" d="M716.77,550.39L80.14,383.19c-31.34-8.23-56.03-35.9-56.03-73.74v-19.91c0-26.68,12.16-51.32,31.84-64.51L377.09,9.71c19.31-12.95,42.99-12.95,62.3,0l321.15,215.32c19.68,13.2,31.84,37.83,31.84,64.51v188.11c0,46.97-36.6,82.39-75.61,72.74Z"/>
  <path class="cls-1" d="M712.23,650.52L75.61,483.32C36.6,473.67,0,509.1,0,556.06v188.11c0,26.68,12.16,51.31,31.84,64.51l321.15,215.32c19.31,12.95,42.99,12.95,62.3,0l321.15-215.32c19.68-13.2,31.84-37.83,31.84-64.51v-19.91c0-37.84-24.69-65.52-56.03-73.74ZM193.63,757.72c-35.27,0-63.86-28.59-63.86-63.86s28.59-63.86,63.86-63.86,63.86,28.59,63.86,63.86-28.59,63.86-63.86,63.86Z"/>
</svg>